<?xml version="1.0" encoding="iso-8859-1"?>
<!-- Generator: Adobe Illustrator 19.0.0, SVG Export Plug-In . SVG Version: 6.00 Build 0)  -->
<svg version="1.1" id="Layer_1" xmlns="http://www.w3.org/2000/svg" xmlns:xlink="http://www.w3.org/1999/xlink" x="0px" y="0px"
	 viewBox="0 0 512 512" style="enable-background:new 0 0 512 512;" xml:space="preserve">
<circle style="fill:#273B7A;" cx="256" cy="256" r="256"/>
<path style="fill:#121149;" d="M506.927,306.922L385.426,185.004l-149.333,93.272l-20.514-22.085l-88.978,70.83l180.527,179.867
	C407.561,486.531,486.65,407.385,506.927,306.922z"/>
<path style="fill:#C92F00;" d="M368.469,335.174c-74.98,5.187-149.959,5.187-224.939,0c-11.204-0.821-22.652-10.747-24.705-21.992
	c-6.73-38.121-6.73-76.241,0-114.362c2.053-11.245,13.502-21.17,24.705-21.992c74.98-5.187,149.959-5.187,224.939,0
	c11.204,0.822,22.65,10.747,24.705,21.992c6.73,38.121,6.73,76.241,0,114.362C391.121,324.427,379.673,334.352,368.469,335.174z"/>
<polygon style="fill:#FFFFFF;" points="238.075,221.189 298.286,256 238.075,290.811 "/>
<g>
</g>
<g>
</g>
<g>
</g>
<g>
</g>
<g>
</g>
<g>
</g>
<g>
</g>
<g>
</g>
<g>
</g>
<g>
</g>
<g>
</g>
<g>
</g>
<g>
</g>
<g>
</g>
<g>
</g>
</svg>
